<svg width="128" height="128" viewBox="0 0 128 128" fill="none" xmlns="http://www.w3.org/2000/svg">
  <rect width="128" height="128" rx="24" fill="#6E56CF"/>
  <circle cx="64" cy="64" r="40" fill="#8B7AE6"/>
  <path d="M38 72.5C35.5 72.5 33.4 71.7 31.7 70.1C30 68.5 29.1 66.5 29.1 64.1C29.1 61.7 30 59.7 31.7 58.1C33.4 56.5 35.5 55.7 38 55.7C40.2 55.7 42.1 56.3 43.6 57.5C45.1 58.7 46 60.2 46.4 62H41.8C41.5 61.2 41 60.6 40.2 60.1C39.4 59.6 38.7 59.4 37.9 59.4C36.6 59.4 35.6 59.9 34.8 60.8C34 61.7 33.6 62.8 33.6 64.1C33.6 65.4 34 66.5 34.8 67.4C35.6 68.3 36.6 68.8 37.9 68.8C38.9 68.8 39.8 68.5 40.5 67.9C41.2 67.3 41.7 66.6 41.9 65.6H37.5V62.2H46.3V64.1C46.3 66.4 45.5 68.4 43.8 70.1C42.1 71.7 40.1 72.5 38 72.5Z" fill="white"/>
  <path d="M50.1 56.2H57.5C59.5 56.2 61.2 56.9 62.5 58.2C63.8 59.5 64.4 61.1 64.4 63.1C64.4 65.1 63.8 66.7 62.5 68C61.2 69.3 59.5 70 57.5 70H54.3V72H50.1V56.2ZM54.3 59.8V66.4H57.2C58.2 66.4 59 66.1 59.5 65.6C60.1 65 60.4 64.2 60.4 63.1C60.4 62.1 60.1 61.3 59.5 60.7C59 60.1 58.2 59.8 57.2 59.8H54.3Z" fill="white"/>
  <path d="M67.3 56.2H74.8C76.8 56.2 78.5 56.9 79.8 58.2C81.1 59.5 81.8 61.2 81.8 63.2C81.8 65.2 81.1 66.9 79.8 68.2C78.5 69.5 76.8 70.2 74.8 70.2H71.5V72H67.3V56.2ZM71.5 59.8V66.5H74.6C75.5 66.5 76.3 66.2 76.9 65.6C77.5 65 77.8 64.2 77.8 63.2C77.8 62.2 77.5 61.4 76.9 60.8C76.3 60.2 75.5 59.8 74.6 59.8H71.5Z" fill="white"/>
  <path d="M84.5 56.2H91.9C94.1 56.2 95.8 56.8 97 58.1C98.3 59.3 98.9 60.9 98.9 62.8C98.9 64.2 98.5 65.4 97.8 66.5C97.1 67.5 96.1 68.3 94.9 68.8L98.2 72H92.8L90.1 69.2H88.7V72H84.5V56.2ZM88.7 59.8V65.8H91.8C92.7 65.8 93.4 65.5 94 65C94.5 64.4 94.8 63.7 94.8 62.8C94.8 61.9 94.5 61.2 94 60.7C93.4 60.1 92.7 59.8 91.8 59.8H88.7Z" fill="white"/>
</svg>
