<svg width="256" height="256" viewBox="0 0 256 256" fill="none" xmlns="http://www.w3.org/2000/svg">
<path d="M63.6 80.2L0 50.1V147.6L63.6 117.5V80.2Z" fill="url(#paint0_linear)"/>
<path d="M95.1 64.9L31.5 34.8L0 50.1L63.6 80.2L95.1 64.9Z" fill="url(#paint1_linear)"/>
<path d="M126.6 80.2L63 110.3L63.6 147.6L126.6 117.5V80.2Z" fill="url(#paint2_linear)"/>
<path d="M95.1 64.9V32.7L126.6 48L95.1 64.9Z" fill="url(#paint3_linear)"/>
<path d="M126.6 48L95.1 32.7L31.5 0L0 15.3L63.6 45.4L95.1 32.7L126.6 48Z" fill="url(#paint4_linear)"/>
<path d="M95.1 64.9L63.6 80.2L95.1 95.5V64.9Z" fill="url(#paint5_linear)"/>
<defs>
<linearGradient id="paint0_linear" x1="31.8" y1="147.6" x2="31.8" y2="50.1" gradientUnits="userSpaceOnUse">
<stop offset="0.1" stop-color="#FF2D20"/>
<stop offset="1" stop-color="#FF6A6A"/>
</linearGradient>
<linearGradient id="paint1_linear" x1="47.55" y1="50.1" x2="47.55" y2="34.8" gradientUnits="userSpaceOnUse">
<stop offset="0.1" stop-color="#FF2D20"/>
<stop offset="1" stop-color="#FF6A6A"/>
</linearGradient>
<linearGradient id="paint2_linear" x1="95.1" y1="147.6" x2="95.1" y2="80.2" gradientUnits="userSpaceOnUse">
<stop offset="0.1" stop-color="#FF2D20"/>
<stop offset="1" stop-color="#FF6A6A"/>
</linearGradient>
<linearGradient id="paint3_linear" x1="110.85" y1="64.9" x2="110.85" y2="32.7" gradientUnits="userSpaceOnUse">
<stop offset="0.1" stop-color="#FF2D20"/>
<stop offset="1" stop-color="#FF6A6A"/>
</linearGradient>
<linearGradient id="paint4_linear" x1="63.3" y1="48" x2="63.3" y2="0" gradientUnits="userSpaceOnUse">
<stop offset="0.1" stop-color="#FF2D20"/>
<stop offset="1" stop-color="#FF6A6A"/>
</linearGradient>
<linearGradient id="paint5_linear" x1="79.35" y1="95.5" x2="79.35" y2="64.9" gradientUnits="userSpaceOnUse">
<stop offset="0.1" stop-color="#FF2D20"/>
<stop offset="1" stop-color="#FF6A6A"/>
</linearGradient>
</defs>
</svg>
